<svg fill="none" height="48" viewBox="0 0 45 48" width="45" xmlns="http://www.w3.org/2000/svg"><path d="m44.8 0h-44.8v48h44.8z" fill="#ec111a"/><g fill="#fff"><path d="m30.6577 14.72h-8.3191c-2.2671.0005-4.4545.8422-6.1442 2.3641-1.6898 1.5219-2.7634 3.6173-3.0157 5.8859-.7741-1.4133-1.1689-3.0054-1.1455-4.6191.0235-1.6138.4643-3.1936 1.2792-4.5834.8148-1.3899 1.9754-2.5419 3.3673-3.3422 1.3918-.80042 2.9669-1.22159 4.5698-1.22199h14.3507z"/><path d="m14.0229 33.28h8.3158c2.2671-.0005 4.4545-.8422 6.1442-2.3641 1.6898-1.5219 2.7634-3.6173 3.0158-5.8859.7741 1.4133 1.1689 3.0054 1.1454 4.6191-.0234 1.6138-.4643 3.1936-1.2791 4.5834-.8148 1.3899-1.9754 2.5419-3.3673 3.3422-1.3919.8004-2.967 1.2216-4.5699 1.222h-14.35065z"/><path d="m22.3386 31.4534c4.0881 0 7.4021-3.337 7.4021-7.4534 0-4.1163-3.314-7.4533-7.4021-7.4533-4.088 0-7.4021 3.337-7.4021 7.4533 0 4.1164 3.3141 7.4534 7.4021 7.4534z"/></g></svg>