<svg width="164" height="28" viewBox="0 0 164 28" fill="none" xmlns="http://www.w3.org/2000/svg">
<path d="M0.978516 8.9122V19.1962C0.978516 17.213 1.80241 15.311 3.26901 13.9085C4.7356 12.506 6.72479 11.7178 8.79911 11.7174H16.6215V8.9122C16.621 6.92898 15.7966 5.02715 14.3297 3.62496C12.8628 2.22277 10.8734 1.43506 8.79911 1.43506C6.72496 1.43506 4.73576 2.22282 3.26911 3.62506C1.80247 5.02729 0.978516 6.92914 0.978516 8.9122Z" fill="white"/>
<path d="M8.79834 26.6732H19.5548C21.6289 26.6732 23.6181 25.8855 25.0847 24.4833C26.5514 23.081 27.3753 21.1792 27.3753 19.1961C27.3753 17.2129 26.5514 15.3109 25.0849 13.9084C23.6183 12.5059 21.6291 11.7177 19.5548 11.7173H16.6207V19.1961C16.6202 21.1793 15.7959 23.0812 14.329 24.4833C12.862 25.8855 10.8727 26.6732 8.79834 26.6732Z" fill="white"/>
<path d="M0.978516 19.1961C0.978516 21.1792 1.80247 23.081 3.26911 24.4833C4.73576 25.8855 6.72496 26.6732 8.79911 26.6732C10.8734 26.6732 12.8628 25.8855 14.3297 24.4833C15.7966 23.0812 16.621 21.1793 16.6215 19.1961V11.7173H8.79911C6.72479 11.7177 4.7356 12.5059 3.26901 13.9084C1.80241 15.3109 0.978516 17.2129 0.978516 19.1961Z" fill="#FFC91F"/>
<path d="M19.5549 10.7808H17.6024V8.91403C17.5696 6.70344 16.628 4.59404 14.9814 3.0419C13.3347 1.48977 11.1153 0.619629 8.80291 0.619629C6.49055 0.619629 4.2711 1.48977 2.62445 3.0419C0.977793 4.59404 0.036257 6.70344 0.00341797 8.91403V19.198C0.00623634 21.4283 0.934134 23.5664 2.58358 25.1434C4.23303 26.7204 6.46935 27.6075 8.80202 27.6102H19.5584C21.8706 27.5788 24.0769 26.6787 25.7003 25.1043C27.3237 23.53 28.2338 21.408 28.2338 19.1972C28.2338 16.9864 27.3237 14.8644 25.7003 13.2901C24.0769 11.7157 21.8706 10.8156 19.5584 10.7842L19.5549 10.7808ZM1.9559 13.9118V8.91063C1.98483 7.1936 2.71855 5.55624 3.9988 4.35176C5.27905 3.14729 7.00322 2.47225 8.79936 2.47225C10.5955 2.47225 12.3197 3.14729 13.5999 4.35176C14.8802 5.55624 15.6139 7.1936 15.6428 8.91063V10.7774H8.79847C8.63695 10.7774 8.47542 10.7774 8.3139 10.7909L8.15593 10.8028C8.04765 10.8028 7.94115 10.8181 7.83466 10.8283L7.65716 10.852C7.55953 10.8639 7.46191 10.8758 7.36606 10.8911L7.17791 10.9233L6.89923 10.9776L6.71286 11.02C6.62056 11.0421 6.53536 11.0642 6.43774 11.0896L6.26024 11.1371L5.97269 11.2271L5.82005 11.2763C5.69757 11.3187 5.57865 11.3628 5.46505 11.4104L5.39405 11.4375C5.25383 11.4935 5.1136 11.5546 4.97693 11.6191L4.85445 11.6785C4.7586 11.726 4.66275 11.7718 4.57046 11.821L4.41958 11.9042C4.33793 11.95 4.25628 11.9958 4.17641 12.0434C4.09653 12.0909 4.07168 12.1061 4.02021 12.1384L3.79301 12.2843L3.64036 12.3879C3.56581 12.4405 3.49304 12.4931 3.42204 12.5474L3.27827 12.6543C3.20372 12.712 3.13094 12.7714 3.05817 12.8325L2.93037 12.9377C2.84694 13.009 2.76529 13.0836 2.68364 13.16L2.60022 13.2347C2.49372 13.3365 2.39077 13.4417 2.2896 13.5486C2.2612 13.5775 2.23635 13.6063 2.20972 13.6369C2.13517 13.7149 2.0624 13.7947 1.99318 13.8778L1.9559 13.9118ZM1.9559 19.1946C1.95731 17.4598 2.67862 15.7965 3.96149 14.5696C5.24437 13.3428 6.98398 12.6527 8.79847 12.6509H15.6428V19.1946C15.6574 20.0627 15.4912 20.9249 15.1539 21.731C14.8165 22.5371 14.3148 23.2709 13.6779 23.8898C13.0409 24.5086 12.2816 25.0001 11.444 25.3355C10.6065 25.671 9.70745 25.8438 8.79936 25.8438C7.89127 25.8438 6.99226 25.671 6.1547 25.3355C5.31715 25.0001 4.55779 24.5086 3.92086 23.8898C3.28394 23.2709 2.78219 22.5371 2.44484 21.731C2.10748 20.9249 1.94128 20.0627 1.9559 19.1946ZM19.5549 25.7384H14.3275L14.3631 25.7096C14.4429 25.6468 14.5193 25.5823 14.5956 25.5178C14.6328 25.4872 14.6701 25.4584 14.7056 25.4262C14.8174 25.3311 14.9239 25.2327 15.0304 25.1326L15.121 25.0409C15.1955 24.9663 15.2701 24.8933 15.3428 24.8169L15.4564 24.6896C15.5186 24.6218 15.5789 24.5539 15.6339 24.4843C15.689 24.4147 15.712 24.391 15.7493 24.3435C15.7866 24.2959 15.8594 24.2077 15.9126 24.1381C15.9659 24.0685 15.9872 24.0397 16.0227 23.9888C16.0582 23.9379 16.1238 23.8479 16.1735 23.7749L16.2765 23.6239C16.3244 23.5475 16.3723 23.4712 16.4185 23.3931C16.4487 23.3439 16.4788 23.2964 16.5072 23.2472C16.5587 23.1589 16.6066 23.069 16.6546 22.979C16.6759 22.9383 16.6989 22.8993 16.7185 22.8585C16.7859 22.7262 16.8498 22.5938 16.9084 22.4597C16.919 22.436 16.9279 22.4122 16.9368 22.3885C16.9865 22.2765 17.0326 22.1628 17.077 22.0491C17.0948 21.9998 17.1107 21.9489 17.1285 21.8997C17.1604 21.8098 17.1924 21.7181 17.2226 21.6265C17.2403 21.5705 17.2563 21.5128 17.2723 21.4568C17.2989 21.3702 17.3237 21.2871 17.345 21.1938C17.361 21.1344 17.3752 21.075 17.3894 21.0156C17.4089 20.9273 17.4285 20.8459 17.4462 20.7508C17.4569 20.6897 17.4693 20.6286 17.4799 20.5692C17.4959 20.4759 17.5083 20.3843 17.5207 20.2909C17.5296 20.2332 17.5385 20.1755 17.5456 20.1212C17.5562 20.0194 17.5651 19.9176 17.5722 19.8141C17.5722 19.7632 17.5811 19.7139 17.5847 19.663C17.5847 19.5086 17.5988 19.3542 17.5988 19.1997V12.6509H19.5513C21.3666 12.6509 23.1075 13.3403 24.391 14.5675C25.6746 15.7947 26.3957 17.4591 26.3957 19.1946C26.3957 20.9302 25.6746 22.5946 24.391 23.8218C23.1075 25.049 21.3666 25.7384 19.5513 25.7384H19.5549Z" fill="#0F0F0E"/>
<path d="M50.7832 10.3329C50.4395 8.63546 49.0428 6.44384 45.4546 6.44384C42.6184 6.44384 40.2764 8.54951 40.2764 11.1064C40.2764 13.384 41.8234 14.9095 44.1439 15.3822L46.2926 15.8334C47.6033 16.1127 48.3338 16.9077 48.3338 17.8961C48.3338 19.0778 47.3884 20.0018 45.562 20.0018C43.3704 20.0018 42.2316 18.5407 42.0812 16.9507L39.6748 17.6383C39.9111 19.8299 41.6945 22.3223 45.562 22.3223C49.0428 22.3223 50.9551 20.0662 50.9551 17.7027C50.9551 15.5541 49.5155 13.8567 46.8297 13.3195L44.6381 12.8683C43.4564 12.6104 42.8548 11.8799 42.8548 10.913C42.8548 9.75275 43.9291 8.7214 45.4761 8.7214C47.5173 8.7214 48.3123 10.118 48.4627 11.0634L50.7832 10.3329ZM57.9032 13.5129C59.4931 13.5129 60.2022 14.5442 60.4385 15.4681L62.6731 14.6516C62.2434 12.9757 60.6964 11.2138 57.8817 11.2138C54.8736 11.2138 52.5316 13.5344 52.5316 16.7573C52.5316 19.9373 54.8736 22.3223 57.9461 22.3223C60.6964 22.3223 62.2649 20.5389 62.7591 18.906L60.5675 18.111C60.3311 18.906 59.5791 20.0447 57.9461 20.0447C56.3776 20.0447 55.024 18.863 55.024 16.7573C55.024 14.6516 56.3776 13.5129 57.9032 13.5129ZM71.1729 11.4717C71.0654 11.4502 70.8076 11.4072 70.5068 11.4072C69.1317 11.4072 67.9714 12.0733 67.4772 13.2121V11.5361H65.0493V22H67.5417V17.0152C67.5417 15.0599 68.4226 13.9426 70.3564 13.9426C70.6142 13.9426 70.8936 13.9641 71.1729 14.0071V11.4717ZM72.7067 19.1638C72.7067 20.8182 74.0603 22.3223 76.2519 22.3223C77.9493 22.3223 78.9807 21.4628 79.4749 20.6678C79.4749 21.5058 79.5608 21.9355 79.5823 22H81.9028C81.8814 21.8926 81.7739 21.2695 81.7739 20.3241V15.1244C81.7739 13.0402 80.5492 11.2138 77.3262 11.2138C74.7479 11.2138 73.1149 12.8253 72.9215 14.6302L75.1991 15.1458C75.3065 14.093 76.0371 13.255 77.3477 13.255C78.7229 13.255 79.3245 13.9641 79.3245 14.845C79.3245 15.2103 79.1526 15.5111 78.551 15.5971L75.8652 16.0053C74.0818 16.2631 72.7067 17.2945 72.7067 19.1638ZM76.7246 20.367C75.7362 20.367 75.1991 19.7224 75.1991 19.0134C75.1991 18.1539 75.8222 17.7242 76.5957 17.5953L79.3245 17.187V17.6597C79.3245 19.701 78.1212 20.367 76.7246 20.367ZM87.3346 26.0824V20.8182C87.8717 21.6132 89.0105 22.2578 90.5145 22.2578C93.5226 22.2578 95.4349 19.8943 95.4349 16.7573C95.4349 13.6633 93.6945 11.2998 90.6005 11.2998C88.989 11.2998 87.7858 12.0518 87.2701 12.9542V11.5361H84.8636V26.0824H87.3346ZM92.9425 16.7573C92.9425 18.7556 91.7822 20.0447 90.1278 20.0447C88.4948 20.0447 87.3131 18.7556 87.3131 16.7573C87.3131 14.8021 88.4948 13.5129 90.1278 13.5129C91.8037 13.5129 92.9425 14.8021 92.9425 16.7573ZM100.379 22V11.5361H97.9077V22H100.379ZM97.521 7.86194C97.521 8.76437 98.2515 9.47343 99.1325 9.47343C100.035 9.47343 100.765 8.76437 100.765 7.86194C100.765 6.95952 100.035 6.22898 99.1325 6.22898C98.2515 6.22898 97.521 6.95952 97.521 7.86194ZM106.163 15.9623C106.163 14.5872 106.915 13.4914 108.333 13.4914C109.902 13.4914 110.482 14.5227 110.482 15.8119V22H112.974V15.3822C112.974 13.0831 111.75 11.2353 109.193 11.2353C108.033 11.2353 106.786 11.7295 106.099 12.9327V11.5361H103.671V22H106.163V15.9623ZM115.333 22.5801C115.613 24.6858 117.547 26.4047 120.318 26.4047C124.25 26.4047 125.69 23.8049 125.69 21.0116V11.5361H123.283V12.8683C122.832 12.0088 121.822 11.3427 120.189 11.3427C117.31 11.3427 115.355 13.6418 115.355 16.435C115.355 19.3787 117.396 21.5273 120.189 21.5273C121.715 21.5273 122.768 20.8182 123.219 20.0018V21.0976C123.219 23.2247 122.231 24.2346 120.254 24.2346C118.814 24.2346 117.804 23.2677 117.632 21.9785L115.333 22.5801ZM120.598 19.4001C118.965 19.4001 117.869 18.2614 117.869 16.435C117.869 14.6516 119.008 13.4914 120.598 13.4914C122.145 13.4914 123.283 14.6516 123.283 16.435C123.283 18.2399 122.188 19.4001 120.598 19.4001ZM129.03 6.76614V22H134.659C137.495 22 139.386 20.2381 139.386 17.7887C139.386 15.9838 138.269 14.5872 136.657 14.1575C137.968 13.6848 138.913 12.4815 138.913 10.87C138.913 8.48505 137.195 6.76614 134.272 6.76614H129.03ZM131.587 13.2121V8.95775H133.864C135.433 8.95775 136.335 9.79572 136.335 11.0849C136.335 12.3526 135.433 13.2121 133.929 13.2121H131.587ZM131.587 19.8084V15.3822H134.294C135.884 15.3822 136.765 16.3061 136.765 17.6168C136.765 18.9704 135.755 19.8084 134.208 19.8084H131.587ZM143.788 15.6185C143.874 14.5012 144.777 13.298 146.345 13.298C148.064 13.298 148.88 14.3938 148.923 15.6185H143.788ZM149.203 18.3473C148.859 19.3787 148.085 20.1737 146.581 20.1737C145.034 20.1737 143.788 19.0349 143.724 17.4449H151.373C151.394 17.4019 151.437 17.0581 151.437 16.6499C151.437 13.341 149.547 11.2138 146.324 11.2138C143.681 11.2138 141.231 13.4054 141.231 16.7143C141.231 20.2596 143.745 22.3223 146.581 22.3223C149.095 22.3223 150.75 20.8397 151.308 19.0134L149.203 18.3473ZM155.636 15.6185C155.722 14.5012 156.625 13.298 158.193 13.298C159.912 13.298 160.729 14.3938 160.772 15.6185H155.636ZM161.051 18.3473C160.707 19.3787 159.934 20.1737 158.43 20.1737C156.883 20.1737 155.636 19.0349 155.572 17.4449H163.221C163.242 17.4019 163.285 17.0581 163.285 16.6499C163.285 13.341 161.395 11.2138 158.172 11.2138C155.529 11.2138 153.079 13.4054 153.079 16.7143C153.079 20.2596 155.593 22.3223 158.43 22.3223C160.943 22.3223 162.598 20.8397 163.157 19.0134L161.051 18.3473Z" fill="white"/>
</svg>
