<svg viewBox="0 0 648.65 120.84" xmlns="http://www.w3.org/2000/svg"><path d="m21.61 77.54h27.77v-21.6h-27.77a21.6 21.6 0 0 0 -21.61 21.6v6.16a21.6 21.6 0 0 0 21.61 21.61h55.53v-21.61h-55.53z" fill="#4555a5"/><path d="m55.54 27.24h-27.77v21.61h27.77v28.69h21.6v-50.3zm-17 15.1a4.3 4.3 0 1 1 4.32-4.34 4.3 4.3 0 0 1 -4.29 4.34z" fill="#4555a5"/><path d="m132.68 21.61v5.54a21.87 21.87 0 0 1 -21.6 21.92h-27.77v-21.92h27.77v-5.54h-55.54v-21.61h55.54a21.6 21.6 0 0 1 21.6 21.61zm-49.37 56.24h21.6v-21.61h-21.6z" fill="#fec111"/><g fill="#333"><path d="m204 103.6h-7.86a3.4 3.4 0 0 1 -2.2-.68 4.22 4.22 0 0 1 -1.26-1.73l-7-18.13h-33.68l-7 18.13a4 4 0 0 1 -1.25 1.67 3.36 3.36 0 0 1 -2.2.74h-7.87l30-75.1h10.32zm-49.2-27.88h28l-11.75-30.55a56.59 56.59 0 0 1 -2.25-7.08c-.39 1.44-.76 2.75-1.13 4s-.72 2.26-1.07 3.17z"/><path d="m242.42 59.26a2.05 2.05 0 0 1 -1.93 1.16 3.63 3.63 0 0 1 -1.79-.58c-.66-.38-1.47-.81-2.43-1.28a22.86 22.86 0 0 0 -3.44-1.31 16.37 16.37 0 0 0 -4.71-.61 14 14 0 0 0 -4.25.61 10.19 10.19 0 0 0 -3.22 1.65 7.33 7.33 0 0 0 -2 2.43 6.46 6.46 0 0 0 -.71 3 5 5 0 0 0 1.18 3.4 10 10 0 0 0 3.12 2.36 26.88 26.88 0 0 0 4.4 1.76c1.64.5 3.33 1 5.06 1.62s3.41 1.22 5.05 1.92a18 18 0 0 1 4.4 2.62 11.36 11.36 0 0 1 4.3 9.32 17.41 17.41 0 0 1 -1.31 6.79 14.8 14.8 0 0 1 -3.88 5.4 18.7 18.7 0 0 1 -6.29 3.59 25.89 25.89 0 0 1 -8.59 1.31 26.9 26.9 0 0 1 -10.06-1.81 25.37 25.37 0 0 1 -7.69-4.61l2.2-3.56a3.07 3.07 0 0 1 1-1.05 2.81 2.81 0 0 1 1.51-.37 3.54 3.54 0 0 1 2 .74c.69.49 1.54 1 2.54 1.62a19.78 19.78 0 0 0 3.61 1.62 16.78 16.78 0 0 0 5.32.73 14.6 14.6 0 0 0 4.77-.71 10.1 10.1 0 0 0 3.42-1.91 7.56 7.56 0 0 0 2-2.78 8.73 8.73 0 0 0 .65-3.35 5.53 5.53 0 0 0 -1.18-3.64 9.79 9.79 0 0 0 -3.12-2.47 25.7 25.7 0 0 0 -4.43-1.78q-2.49-.77-5.08-1.6c-1.73-.56-3.42-1.19-5.08-1.91a18 18 0 0 1 -4.43-2.7 12.29 12.29 0 0 1 -3.12-4 13 13 0 0 1 -1.21-5.8 14.11 14.11 0 0 1 1.26-5.84 14.37 14.37 0 0 1 3.74-4.93 18.21 18.21 0 0 1 5.92-3.38 23.65 23.65 0 0 1 8-1.26 25.32 25.32 0 0 1 9.4 1.66 22.3 22.3 0 0 1 7.21 4.53z"/><path d="m267.21 26.41v45.43h2.41a4.31 4.31 0 0 0 1.73-.29 4.78 4.78 0 0 0 1.52-1.18l16.77-18a9.07 9.07 0 0 1 1.57-1.37 3.71 3.71 0 0 1 2.1-.53h8.49l-19.55 20.85a18.92 18.92 0 0 1 -1.44 1.57 8.36 8.36 0 0 1 -1.6 1.2 9.11 9.11 0 0 1 1.7 1.45 12.7 12.7 0 0 1 1.44 1.86l20.76 26.2h-8.39a4 4 0 0 1 -2-.45 5.07 5.07 0 0 1 -1.55-1.39l-17.41-21.76a4 4 0 0 0 -1.57-1.44 6.16 6.16 0 0 0 -2.36-.35h-2.62v25.39h-9.38v-77.19z"/><path d="m328.78 78.08v25.52h-17.71v-76.35h26.93a44.32 44.32 0 0 1 13.86 1.91 26.37 26.37 0 0 1 9.53 5.27 20.48 20.48 0 0 1 5.53 7.91 26.77 26.77 0 0 1 1.78 9.85 29 29 0 0 1 -1.83 10.48 21 21 0 0 1 -5.61 8.18 26.45 26.45 0 0 1 -9.56 5.32 44 44 0 0 1 -13.7 1.91zm0-13.37h9.22q6.92 0 9.95-3.3t3-9.22a13.88 13.88 0 0 0 -.78-4.77 9.73 9.73 0 0 0 -2.39-3.69 10.8 10.8 0 0 0 -4-2.39 17.86 17.86 0 0 0 -5.78-.84h-9.23z"/><path d="m400.16 117.69a4.65 4.65 0 0 1 -5.14 3.15h-12.16l10.48-22-21.69-49.58h14.35a4.64 4.64 0 0 1 2.93.83 4.52 4.52 0 0 1 1.47 2l8.91 23.42a50.72 50.72 0 0 1 2 6.5c.35-1.12.74-2.22 1.15-3.3s.82-2.19 1.21-3.3l8.07-23.32a4 4 0 0 1 1.65-2 4.72 4.72 0 0 1 2.65-.81h13.1z"/><path d="m455 104.44a19.15 19.15 0 0 1 -6.84-1.13 13.19 13.19 0 0 1 -8-8.2 19.36 19.36 0 0 1 -1-6.55v-28.09h-4.61a2.93 2.93 0 0 1 -3-3.2v-6.34l8.45-1.67 3.23-13.26q.63-2.52 3.56-2.52h8.49v15.88h13.21v11.11h-13.21v27a5.09 5.09 0 0 0 .92 3.12 3.1 3.1 0 0 0 2.65 1.23 4.91 4.91 0 0 0 1.49-.19 5.74 5.74 0 0 0 1.05-.42c.29-.15.57-.29.84-.41a2 2 0 0 1 .91-.19 1.92 1.92 0 0 1 1.18.34 4.15 4.15 0 0 1 .92 1.08l4.93 7.7a22.62 22.62 0 0 1 -7.08 3.54 28.33 28.33 0 0 1 -8.09 1.17z"/><path d="m477.82 103.6v-78.45h16.24v28.85a26.66 26.66 0 0 1 6.37-4 19.87 19.87 0 0 1 8.2-1.54 19.05 19.05 0 0 1 7.89 1.54 16.47 16.47 0 0 1 5.79 4.3 18.51 18.51 0 0 1 3.56 6.55 27.28 27.28 0 0 1 1.21 8.25v34.5h-16.25v-34.54a9.54 9.54 0 0 0 -1.83-6.21 6.62 6.62 0 0 0 -5.4-2.22 11.28 11.28 0 0 0 -5 1.15 19.69 19.69 0 0 0 -4.51 3.09v38.73z"/><path d="m562.81 48.42a31.26 31.26 0 0 1 11.27 1.94 24.57 24.57 0 0 1 8.72 5.55 24.94 24.94 0 0 1 5.66 8.78 31.56 31.56 0 0 1 2 11.61 32.14 32.14 0 0 1 -2 11.71 25.06 25.06 0 0 1 -5.66 8.85 24.7 24.7 0 0 1 -8.72 5.61 33.42 33.42 0 0 1 -22.61 0 25.35 25.35 0 0 1 -8.81-5.61 24.89 24.89 0 0 1 -5.66-8.86 32.36 32.36 0 0 1 -2-11.71 31.77 31.77 0 0 1 2-11.61 24.78 24.78 0 0 1 5.71-8.78 25.21 25.21 0 0 1 8.81-5.55 31.53 31.53 0 0 1 11.29-1.93zm0 44q5.61 0 8.26-3.95t2.64-12q0-8.07-2.64-12t-8.26-3.93q-5.76 0-8.43 3.93t-2.68 12q0 8.07 2.68 12t8.43 3.91z"/><path d="m599.39 103.6v-54.34h10.06a4.41 4.41 0 0 1 2.54.68 3.62 3.62 0 0 1 1.44 2l1 3.14a41.42 41.42 0 0 1 3.25-2.72 18.52 18.52 0 0 1 3.59-2.12 21.39 21.39 0 0 1 4.14-1.37 22.29 22.29 0 0 1 4.84-.49 19.05 19.05 0 0 1 7.84 1.62 16.38 16.38 0 0 1 5.79 4.3 18.51 18.51 0 0 1 3.56 6.55 27 27 0 0 1 1.21 8.25v34.5h-16.24v-34.54a9.54 9.54 0 0 0 -1.84-6.21 6.59 6.59 0 0 0 -5.4-2.22 11.28 11.28 0 0 0 -5 1.15 19.64 19.64 0 0 0 -4.5 3.09v38.73z"/></g></svg>